<?xml version="1.0" encoding="UTF-8" standalone="no"?>
<!DOCTYPE svg PUBLIC "-//W3C//DTD SVG 20010904//EN"
              "http://www.w3.org/TR/2001/REC-SVG-20010904/DTD/svg10.dtd">

<svg xmlns="http://www.w3.org/2000/svg"
     width="40px" height="40px"
     viewBox="0 0 310 310">
  <path id="C Path"
        fill="none" stroke="white" stroke-width="20"
        d="M 246.00,85.00
           C 246.00,85.00 241.00,76.25 236.00,76.00
             229.25,77.50 225.25,83.00 220.00,92.00
             214.75,100.00 183.75,144.50 176.00,200.00
             174.80,208.79 176.25,226.25 182.12,231.49
             182.66,233.07 198.00,243.75 208.00,239.00
             218.50,232.75 228.00,221.00 228.00,221.00" />
  <path id="L Path"
        fill="none" stroke="white" stroke-width="20"
        d="M 102.00,73.00
           C 95.88,80.88 70.10,139.19 51.00,194.00
             44.75,211.00 42.00,219.25 41.00,235.00
             41.00,235.00 40.75,243.75 45.00,247.00
             45.00,247.00 47.00,251.25 54.00,250.00
             54.00,250.00 63.00,248.50 70.00,246.00
             92.00,236.50 110.50,227.75 116.00,228.00
             121.25,227.50 126.00,232.00 126.00,232.00" />
</svg>
